<svg xmlns="http://www.w3.org/2000/svg" viewBox="0 0 60.85 60.85"><defs><style>.cls-1{fill:#5089c7;}.cls-2{fill:#fff;}.cls-3{fill:none;stroke:#5089c7;stroke-linecap:round;stroke-linejoin:round;stroke-width:2.5px;}</style></defs><g id="Layer_2" data-name="Layer 2"><g id="Capa_1" data-name="Capa 1"><circle class="cls-1" cx="30.42" cy="30.42" r="30.42" transform="translate(-10.13 44.79) rotate(-64.5)"/><circle class="cls-2" cx="30.42" cy="30.42" r="26.21" transform="translate(-10.13 44.79) rotate(-64.5)"/><line class="cls-3" x1="16.89" y1="29.28" x2="14.42" y2="29.28"/><line class="cls-3" x1="47.14" y1="29.28" x2="44.67" y2="29.28"/><line class="cls-3" x1="30.78" y1="15.39" x2="30.78" y2="12.92"/><line class="cls-3" x1="20.96" y1="19.46" x2="19.21" y2="17.71"/><line class="cls-3" x1="42.35" y1="40.85" x2="40.6" y2="39.1"/><line class="cls-3" x1="40.6" y1="19.46" x2="42.35" y2="17.71"/><line class="cls-3" x1="19.21" y1="40.85" x2="20.96" y2="39.1"/><path class="cls-3" d="M35.47,40.94a6.58,6.58,0,0,1,2.6-3.67A11.17,11.17,0,0,0,29.49,17.7h0a11.18,11.18,0,0,0-6.06,19.52,7.53,7.53,0,0,1,2.74,4"/><path class="cls-3" d="M36.08,41.16H25.51a.61.61,0,0,0-.6.47.59.59,0,0,0,.58.7h0a1.12,1.12,0,0,1,1.12,1c0,.25,0,.5,0,.75v3.52a1.17,1.17,0,0,0,1.17,1.18h5.88a1.18,1.18,0,0,0,1.18-1.18V44.1q0-.37,0-.75a1.14,1.14,0,0,1,1.12-1h0a.59.59,0,0,0,.6-.47A.58.58,0,0,0,36.08,41.16Z"/><path class="cls-3" d="M33.33,41.16h-5L26.63,31a2.87,2.87,0,0,1,2.82-3.35h2.77A2.87,2.87,0,0,1,35.05,31Z"/></g></g></svg>