<svg xmlns="http://www.w3.org/2000/svg" viewBox="0 0 60.85 60.85"><defs><style>.cls-1{fill:#5089c7;}.cls-2{fill:#fff;}</style></defs><g id="Layer_2" data-name="Layer 2"><g id="Capa_1" data-name="Capa 1"><circle class="cls-1" cx="30.42" cy="30.42" r="30.42" transform="translate(-10.13 44.79) rotate(-64.5)"/><circle class="cls-2" cx="30.42" cy="30.42" r="26.21" transform="translate(-10.13 44.79) rotate(-64.5)"/><path class="cls-1" d="M43.07,44.36H22.8a5.07,5.07,0,0,1-5.06-5.06V19A5.07,5.07,0,0,1,22.8,14H43.07a1.38,1.38,0,0,1,1,2.36A5,5,0,0,0,42.61,19a5,5,0,0,0,1.44,2.71,1.4,1.4,0,0,1,.4,1V43A1.38,1.38,0,0,1,43.07,44.36ZM20.5,23.55V39.3a2.31,2.31,0,0,0,2.3,2.3H41.69V24.1H22.8A5.1,5.1,0,0,1,20.5,23.55Zm2.3-6.82a2.31,2.31,0,0,0,0,4.61H40.42a5.4,5.4,0,0,1-.58-2.3,5.4,5.4,0,0,1,.58-2.31Z"/><rect class="cls-1" x="28.91" y="17.9" width="12.12" height="2.27" rx="1.14"/></g></g></svg>