<svg xmlns="http://www.w3.org/2000/svg" viewBox="0 0 79.82 66.86"><defs><style>.cls-1{fill:#fff;}</style></defs><g id="Layer_2" data-name="Layer 2"><g id="_1" data-name="1"><path class="cls-1" d="M70.64,6.45A9.45,9.45,0,0,0,67.48,7a32.32,32.32,0,0,0-43.3,2.83,19.52,19.52,0,1,0-4.91,38.48A32.32,32.32,0,0,0,55,63.78a13,13,0,0,0,16,.63,13.5,13.5,0,0,0,5-17,32.32,32.32,0,0,0,1.85-26,9.23,9.23,0,0,0-7.2-14.94m1.08,15.83a45.73,45.73,0,0,1-1.19,23.51,9.75,9.75,0,1,1-15.67,3.07c-12-8.49-19.21-10.75-22.78-11.31a14.67,14.67,0,0,1-11.7,5.72A14.91,14.91,0,1,1,35.23,28.44c0,.26,0,.51,0,.77A60,60,0,0,1,56.87,45.9,9.69,9.69,0,0,1,63.81,43h.13c1.19-1.48,4.34-6.69,5.41-20.88a6.53,6.53,0,0,1-4.7-4.63c-1,0-3.15.27-6.86,2A3.22,3.22,0,0,1,58.11,21a3.44,3.44,0,1,1-3.42-3.49,3.41,3.41,0,0,1,2.18.82,20.68,20.68,0,0,1,7.69-3.91,6.5,6.5,0,1,1,7.16,7.85"/></g></g></svg>