<svg xmlns="http://www.w3.org/2000/svg" xmlns:xlink="http://www.w3.org/1999/xlink" viewBox="0 0 1364.07 708.59"><defs><style>.cls-1{fill:#301845;opacity:0.22;}.cls-1,.cls-10,.cls-2,.cls-3,.cls-4,.cls-5,.cls-6,.cls-7,.cls-9{fill-rule:evenodd;}.cls-2{fill:url(#_ÂÁ_Ï_ÌÌ_È_ËÂÌÚ_256);}.cls-3{fill:#907c9f;}.cls-4{fill:#453251;}.cls-5{fill:#2b1a38;}.cls-6{fill:#705683;}.cls-7,.cls-8{fill:#816a92;}.cls-7{opacity:0.5;}.cls-9{fill:#4f6abd;}.cls-10{fill:aqua;}</style><radialGradient id="_ÂÁ_Ï_ÌÌ_È_ËÂÌÚ_256" cx="543.13" cy="-2289.9" r="535.05" gradientTransform="matrix(1.03, 0.01, -0.08, -0.98, -50.96, -1872.09)" gradientUnits="userSpaceOnUse"><stop offset="0" stop-color="#dbeae3"/><stop offset="1" stop-color="#d3c5e8"/></radialGradient></defs><g id="Layer_2" data-name="Layer 2"><g id="Capa_1" data-name="Capa 1"><polygon class="cls-1" points="0 50.42 12.67 611.54 90.35 694.18 1278.63 677.34 1349.46 594.01 1336.66 67.1 1267.57 14.04 66.74 0 0 50.42"/><polygon class="cls-2" points="14.6 64.83 27.27 625.95 104.96 708.59 1293.23 691.75 1364.07 608.42 1351.26 81.51 1282.17 28.45 81.34 14.41 14.6 64.83"/><polygon class="cls-3" points="104.96 708.59 92.64 700.29 16.85 625.69 8.64 58.38 77.38 14.38 81.34 14.41 14.6 64.83 27.27 625.95 104.96 708.59"/><polygon class="cls-4" points="31.4 107.85 97.07 61.65 477.78 63.93 507.4 87.06 972.01 89.51 994.87 67.01 1275.24 77.44 1342.96 123.65 1349.16 594.48 1282.2 676.69 1011.13 687.49 981.5 667.02 554.03 673.53 528.01 693.93 121.57 699.34 43.36 621.25 31.4 107.85"/><polygon class="cls-5" points="515.18 694.1 547.06 672.8 554.03 673.53 528.01 693.93 515.18 694.1"/><polygon class="cls-5" points="1272.32 677.02 1342.22 593.11 1335.51 126.17 1268.74 77.2 1275.24 77.44 1342.96 123.65 1349.16 594.48 1282.2 676.69 1272.32 677.02"/><polygon class="cls-5" points="507.4 87.06 499.15 87.02 468.31 63.87 477.78 63.93 507.4 87.06"/><polygon class="cls-6" points="16.85 625.69 27.27 625.95 14.6 64.83 8.64 58.38 16.85 625.69"/><polygon class="cls-7" points="96.94 52.58 94.59 24.2 1273.73 36.95 1277.06 68.7 983.82 60.33 963.29 82.84 520.93 80.42 490.44 53.64 96.94 52.58"/><path class="cls-8" d="M1278.14,69.66,984.31,61.27,964.06,83.48l-.27.3L521,81.35h-.4L490.12,54.57,97,53.51H96L93.53,23.26,1273.66,36h.95Zm-1180.3-18L490.36,52.7h.4l30.49,26.78,441.54,2.42,20.54-22.53L1276,67.73l-3.13-29.86L95.65,25.15Z"/><polygon class="cls-9" points="550.25 45.59 569.3 63.1 918.09 65.2 930.48 48.08 550.25 45.59"/><polygon class="cls-10" points="902.16 65.11 913.03 47.97 550.25 45.59 569.3 63.1 902.16 65.11"/></g></g></svg>