<svg xmlns="http://www.w3.org/2000/svg" xmlns:xlink="http://www.w3.org/1999/xlink" viewBox="0 0 99.97 99.97"><defs><style>.cls-1{fill:url(#Degradado_sin_nombre_4);}.cls-2{fill:url(#Degradado_sin_nombre_4-2);}.cls-3{fill:url(#Degradado_sin_nombre_2);}.cls-4{fill:#793087;}</style><linearGradient id="Degradado_sin_nombre_4" y1="49.98" x2="99.97" y2="49.98" gradientUnits="userSpaceOnUse"><stop offset="0" stop-color="#a849bf"/><stop offset="1" stop-color="#793087"/></linearGradient><linearGradient id="Degradado_sin_nombre_4-2" x1="75.39" y1="82.65" x2="47.3" y2="46.53" xlink:href="#Degradado_sin_nombre_4"/><linearGradient id="Degradado_sin_nombre_2" x1="70.39" y1="76.22" x2="47.83" y2="47.21" gradientUnits="userSpaceOnUse"><stop offset="0" stop-color="#fff"/><stop offset="1" stop-color="#d6d6d6"/></linearGradient></defs><g id="Layer_2" data-name="Layer 2"><g id="Capa_1" data-name="Capa 1"><circle class="cls-1" cx="49.98" cy="49.98" r="49.98"/><circle class="cls-2" cx="49.98" cy="49.98" r="44.29"/><circle class="cls-3" cx="49.98" cy="49.98" r="35.57"/><path class="cls-4" d="M50,36.61A13.38,13.38,0,1,0,63.36,50,13.39,13.39,0,0,0,50,36.61ZM50,58.9A8.92,8.92,0,1,1,58.9,50,8.93,8.93,0,0,1,50,58.9Z"/><rect class="cls-4" x="34.38" y="33.46" width="4.46" height="6.3" transform="translate(-15.16 36.61) rotate(-45)"/><rect class="cls-4" x="61.13" y="60.21" width="4.46" height="6.3" transform="translate(-26.24 63.36) rotate(-45)"/><rect class="cls-4" x="60.21" y="34.38" width="6.3" height="4.46" transform="translate(-7.33 55.52) rotate(-45)"/><rect class="cls-4" x="33.46" y="61.13" width="6.3" height="4.46" transform="translate(-34.08 44.45) rotate(-45)"/><rect class="cls-4" x="27.69" y="47.76" width="6.69" height="4.46"/><rect class="cls-4" x="65.59" y="47.76" width="6.69" height="4.46"/><rect class="cls-4" x="47.76" y="27.69" width="4.46" height="6.69"/><rect class="cls-4" x="47.76" y="65.59" width="4.46" height="6.69"/></g></g></svg>