<svg xmlns="http://www.w3.org/2000/svg" xmlns:xlink="http://www.w3.org/1999/xlink" viewBox="0 0 99.97 99.97"><defs><style>.cls-1{fill:url(#Degradado_sin_nombre_4);}.cls-2{fill:url(#Degradado_sin_nombre_4-2);}.cls-3{fill:url(#Degradado_sin_nombre_2);}.cls-4{fill:#793087;}</style><linearGradient id="Degradado_sin_nombre_4" y1="49.98" x2="99.97" y2="49.98" gradientUnits="userSpaceOnUse"><stop offset="0" stop-color="#a849bf"/><stop offset="1" stop-color="#793087"/></linearGradient><linearGradient id="Degradado_sin_nombre_4-2" x1="75.39" y1="82.65" x2="47.3" y2="46.53" xlink:href="#Degradado_sin_nombre_4"/><linearGradient id="Degradado_sin_nombre_2" x1="70.39" y1="76.22" x2="47.83" y2="47.21" gradientUnits="userSpaceOnUse"><stop offset="0" stop-color="#fff"/><stop offset="1" stop-color="#d6d6d6"/></linearGradient></defs><g id="Layer_2" data-name="Layer 2"><g id="Capa_1" data-name="Capa 1"><circle class="cls-1" cx="49.98" cy="49.98" r="49.98"/><circle class="cls-2" cx="49.98" cy="49.98" r="44.29"/><circle class="cls-3" cx="49.98" cy="49.98" r="35.57"/><path class="cls-4" d="M50,29.56A23.12,23.12,0,0,0,26.9,52.65v9.23H45.37V52.65a4.62,4.62,0,1,1,9.23,0v9.23H73.07V52.65A23.12,23.12,0,0,0,50,29.56Zm0,13.86a9.24,9.24,0,0,0-9.23,9.23v4.62H38.44V52.65a11.55,11.55,0,0,1,23.09,0v4.62H59.22V52.65A9.24,9.24,0,0,0,50,43.42ZM66.15,57.27V52.65a16.17,16.17,0,0,0-32.33,0v4.62h-2.3V52.65a18.47,18.47,0,1,1,36.93,0v4.62Z"/></g></g></svg>