<svg xmlns="http://www.w3.org/2000/svg" xmlns:xlink="http://www.w3.org/1999/xlink" viewBox="0 0 99.97 99.97"><defs><style>.cls-1{fill:url(#Degradado_sin_nombre_4);}.cls-2{fill:url(#Degradado_sin_nombre_4-2);}.cls-3{fill:url(#Degradado_sin_nombre_2);}.cls-4{fill:#793087;}</style><linearGradient id="Degradado_sin_nombre_4" y1="49.98" x2="99.97" y2="49.98" gradientUnits="userSpaceOnUse"><stop offset="0" stop-color="#a849bf"/><stop offset="1" stop-color="#793087"/></linearGradient><linearGradient id="Degradado_sin_nombre_4-2" x1="75.39" y1="82.65" x2="47.3" y2="46.53" xlink:href="#Degradado_sin_nombre_4"/><linearGradient id="Degradado_sin_nombre_2" x1="70.39" y1="76.22" x2="47.83" y2="47.21" gradientUnits="userSpaceOnUse"><stop offset="0" stop-color="#fff"/><stop offset="1" stop-color="#d6d6d6"/></linearGradient></defs><g id="Layer_2" data-name="Layer 2"><g id="Capa_1" data-name="Capa 1"><circle class="cls-1" cx="49.98" cy="49.98" r="49.98"/><circle class="cls-2" cx="49.98" cy="49.98" r="44.29"/><circle class="cls-3" cx="49.98" cy="49.98" r="35.57"/><path class="cls-4" d="M69.24,36.5c0-5.36-14.74-5.77-19.26-5.77s-19.25.41-19.25,5.77S45.47,42.28,50,42.28,69.24,41.87,69.24,36.5ZM50,34.58c7.61,0,12.66,1.08,14.67,1.92-2,.85-7.06,1.93-14.67,1.93S37.33,37.35,35.32,36.5C37.33,35.66,42.38,34.58,50,34.58Z"/><path class="cls-4" d="M65.51,41.84c-.65.8-5.45,2.37-13.6,2.37S39,42.64,38.31,41.84a.79.79,0,0,1,.12.44H34.58c0,5.5,14.44,5.78,17.33,5.78s17.33-.28,17.33-5.78H65.39A.79.79,0,0,1,65.51,41.84Z"/><path class="cls-4" d="M65.48,47.71c-.56.77-4.66,2.27-11.64,2.27s-11.09-1.5-11.64-2.27a.75.75,0,0,1,.08.35H38.43c0,5.61,13.83,5.78,15.41,5.78s15.4-.17,15.4-5.78H65.39A.62.62,0,0,1,65.48,47.71Z"/><path class="cls-4" d="M61.61,53.54c-.44.64-3.55,1.9-8.74,1.9s-8.29-1.26-8.73-1.9a.6.6,0,0,1,.07.3H40.36c0,3.77,6.28,5.45,12.51,5.45s12.52-1.68,12.52-5.45H61.54A.6.6,0,0,1,61.61,53.54Z"/><path class="cls-4" d="M51,61.22c-3.11,0-4.75-1.24-4.82-1.61H42.28c0,3.11,3.73,5.46,8.67,5.46s8.66-2.35,8.66-5.46H55.76C55.69,60,54.06,61.22,51,61.22Z"/><path class="cls-4" d="M50.07,65.09a1.63,1.63,0,0,1-1,.3,1.65,1.65,0,0,1-1.05-.3.47.47,0,0,1,.09.3H44.21c0,2.16,2.11,3.85,4.81,3.85s4.82-1.69,4.82-3.85H50A.54.54,0,0,1,50.07,65.09Z"/></g></g></svg>