<svg xmlns="http://www.w3.org/2000/svg" xmlns:xlink="http://www.w3.org/1999/xlink" viewBox="0 0 99.97 99.97"><defs><style>.cls-1{fill:url(#Degradado_sin_nombre_4);}.cls-2{fill:url(#Degradado_sin_nombre_4-2);}.cls-3{fill:url(#Degradado_sin_nombre_2);}.cls-4{fill:#793087;}</style><linearGradient id="Degradado_sin_nombre_4" y1="49.98" x2="99.97" y2="49.98" gradientUnits="userSpaceOnUse"><stop offset="0" stop-color="#a849bf"/><stop offset="1" stop-color="#793087"/></linearGradient><linearGradient id="Degradado_sin_nombre_4-2" x1="75.39" y1="82.65" x2="47.3" y2="46.53" xlink:href="#Degradado_sin_nombre_4"/><linearGradient id="Degradado_sin_nombre_2" x1="70.39" y1="76.22" x2="47.83" y2="47.21" gradientUnits="userSpaceOnUse"><stop offset="0" stop-color="#fff"/><stop offset="1" stop-color="#d6d6d6"/></linearGradient></defs><g id="Layer_2" data-name="Layer 2"><g id="Capa_1" data-name="Capa 1"><circle class="cls-1" cx="49.98" cy="49.98" r="49.98"/><circle class="cls-2" cx="49.98" cy="49.98" r="44.29"/><circle class="cls-3" cx="49.98" cy="49.98" r="35.57"/><path class="cls-4" d="M63.39,48.34A14.56,14.56,0,0,0,53.56,40a12.51,12.51,0,0,0-24.47,3.71,12.38,12.38,0,0,0,3.05,8.18,8.34,8.34,0,0,0-3.05,6.44A10.46,10.46,0,0,0,39.54,68.79H60.43a10.44,10.44,0,0,0,3-20.45Zm-21.76-13a8.38,8.38,0,0,1,7.27,4.27A14.51,14.51,0,0,0,36,49.86a8.25,8.25,0,0,1-2.76-6.14A8.37,8.37,0,0,1,41.63,35.36Zm18.8,29.25H39.54a6.27,6.27,0,0,1-6.27-6.27,4.16,4.16,0,0,1,4-4.19l2.14.09.3-1.8A10.44,10.44,0,0,1,59.87,50.8l.4,1.18,1.22.21a6.25,6.25,0,0,1-1.06,12.42Z"/></g></g></svg>