<svg xmlns="http://www.w3.org/2000/svg" xmlns:xlink="http://www.w3.org/1999/xlink" viewBox="0 0 99.97 99.97"><defs><style>.cls-1{fill:url(#Degradado_sin_nombre_4);}.cls-2{fill:url(#Degradado_sin_nombre_4-2);}.cls-3{fill:url(#Degradado_sin_nombre_2);}.cls-4{fill:#793087;}</style><linearGradient id="Degradado_sin_nombre_4" y1="49.98" x2="99.97" y2="49.98" gradientUnits="userSpaceOnUse"><stop offset="0" stop-color="#a849bf"/><stop offset="1" stop-color="#793087"/></linearGradient><linearGradient id="Degradado_sin_nombre_4-2" x1="75.39" y1="82.65" x2="47.3" y2="46.53" xlink:href="#Degradado_sin_nombre_4"/><linearGradient id="Degradado_sin_nombre_2" x1="70.39" y1="76.22" x2="47.83" y2="47.21" gradientUnits="userSpaceOnUse"><stop offset="0" stop-color="#fff"/><stop offset="1" stop-color="#d6d6d6"/></linearGradient></defs><g id="Layer_2" data-name="Layer 2"><g id="Capa_1" data-name="Capa 1"><circle class="cls-1" cx="49.98" cy="49.98" r="49.98"/><circle class="cls-2" cx="49.98" cy="49.98" r="44.29"/><circle class="cls-3" cx="49.98" cy="49.98" r="35.57"/><path class="cls-4" d="M65.36,37.76a16.75,16.75,0,0,0-31.48,2A9.61,9.61,0,0,0,26,49.22a12,12,0,0,0,6,10.37l2.4-4.15a7.2,7.2,0,0,1-3.6-6.22,4.79,4.79,0,0,1,4.57-4.81l2.45.11.35-2.07a12,12,0,0,1,23.12-1.88l.46,1.35,1.41.24a7.17,7.17,0,0,1,2.37,13.28L68,59.59a12,12,0,0,0-2.59-21.83Z"/><polygon class="cls-4" points="56.62 43.57 52.93 40.5 37.69 58.8 49.66 58.8 40.96 69.24 44.64 72.31 59.89 54.01 47.91 54.01 56.62 43.57"/></g></g></svg>