<svg xmlns="http://www.w3.org/2000/svg" xmlns:xlink="http://www.w3.org/1999/xlink" viewBox="0 0 99.97 99.97"><defs><style>.cls-1{fill:url(#Degradado_sin_nombre_4);}.cls-2{fill:url(#Degradado_sin_nombre_4-2);}.cls-3{fill:url(#Degradado_sin_nombre_2);}.cls-4{fill:#793087;}</style><linearGradient id="Degradado_sin_nombre_4" y1="49.98" x2="99.97" y2="49.98" gradientUnits="userSpaceOnUse"><stop offset="0" stop-color="#a849bf"/><stop offset="1" stop-color="#793087"/></linearGradient><linearGradient id="Degradado_sin_nombre_4-2" x1="75.39" y1="82.65" x2="47.3" y2="46.53" xlink:href="#Degradado_sin_nombre_4"/><linearGradient id="Degradado_sin_nombre_2" x1="70.39" y1="76.22" x2="47.83" y2="47.21" gradientUnits="userSpaceOnUse"><stop offset="0" stop-color="#fff"/><stop offset="1" stop-color="#d6d6d6"/></linearGradient></defs><g id="Layer_2" data-name="Layer 2"><g id="Capa_1" data-name="Capa 1"><circle class="cls-1" cx="49.98" cy="49.98" r="49.98"/><circle class="cls-2" cx="49.98" cy="49.98" r="44.29"/><circle class="cls-3" cx="49.98" cy="49.98" r="35.57"/><path class="cls-4" d="M64.57,38a15.89,15.89,0,0,0-29.86,1.93,9.1,9.1,0,0,0-7.45,8.94,11.42,11.42,0,0,0,5.68,9.84l2.28-3.94a6.83,6.83,0,0,1-3.41-5.9,4.53,4.53,0,0,1,4.33-4.56l2.33.1.33-2a11.34,11.34,0,0,1,21.93-1.78l.44,1.28,1.33.23a6.79,6.79,0,0,1,2.25,12.59L67,58.69A11.35,11.35,0,0,0,64.57,38Z"/><rect class="cls-4" x="38.62" y="48.85" width="4.54" height="4.54"/><rect class="cls-4" x="47.71" y="53.39" width="4.54" height="4.54"/><rect class="cls-4" x="38.62" y="57.94" width="4.54" height="4.54"/><rect class="cls-4" x="47.71" y="62.48" width="4.54" height="4.54"/><rect class="cls-4" x="38.62" y="67.02" width="4.54" height="4.54"/><rect class="cls-4" x="56.8" y="48.85" width="4.54" height="4.54"/><rect class="cls-4" x="56.8" y="57.94" width="4.54" height="4.54"/><rect class="cls-4" x="56.8" y="67.02" width="4.54" height="4.54"/></g></g></svg>