<svg xmlns="http://www.w3.org/2000/svg" xmlns:xlink="http://www.w3.org/1999/xlink" viewBox="0 0 99.97 99.97"><defs><style>.cls-1{fill:url(#Degradado_sin_nombre_4);}.cls-2{fill:url(#Degradado_sin_nombre_4-2);}.cls-3{fill:url(#Degradado_sin_nombre_2);}.cls-4{fill:#793087;}</style><linearGradient id="Degradado_sin_nombre_4" y1="49.98" x2="99.97" y2="49.98" gradientUnits="userSpaceOnUse"><stop offset="0" stop-color="#a849bf"/><stop offset="1" stop-color="#793087"/></linearGradient><linearGradient id="Degradado_sin_nombre_4-2" x1="75.39" y1="82.65" x2="47.3" y2="46.53" xlink:href="#Degradado_sin_nombre_4"/><linearGradient id="Degradado_sin_nombre_2" x1="70.39" y1="76.22" x2="47.83" y2="47.21" gradientUnits="userSpaceOnUse"><stop offset="0" stop-color="#fff"/><stop offset="1" stop-color="#d6d6d6"/></linearGradient></defs><g id="Layer_2" data-name="Layer 2"><g id="Capa_1" data-name="Capa 1"><circle class="cls-1" cx="49.98" cy="49.98" r="49.98"/><circle class="cls-2" cx="49.98" cy="49.98" r="44.29"/><circle class="cls-3" cx="49.98" cy="49.98" r="35.57"/><path class="cls-4" d="M67.67,50.81a9,9,0,0,0-2.38-14.66A11.41,11.41,0,0,0,54.53,28.4a11.24,11.24,0,0,0-9.2,4.75,11.69,11.69,0,0,0-2.16-.21A13.65,13.65,0,0,0,29.54,46.58,13,13,0,0,0,31.3,52.7a9.06,9.06,0,0,0-4,7.51A11.38,11.38,0,0,0,38.62,71.57H61.34A11.37,11.37,0,0,0,72.7,60.21,11.25,11.25,0,0,0,67.67,50.81ZM43.17,37.49a9,9,0,0,1,2.59.43l1.84.55.85-1.72a6.78,6.78,0,0,1,12.73,1.57l.28,1.29,1.25.39a4.52,4.52,0,0,1,1.19,8.06,15.81,15.81,0,0,0-28.78,2.12,8.28,8.28,0,0,1-1-3.6A9.1,9.1,0,0,1,43.17,37.49ZM61.34,67H38.62a6.82,6.82,0,0,1-6.81-6.81,4.53,4.53,0,0,1,4.33-4.56l2.33.1.33-2A11.34,11.34,0,0,1,60.73,52l.44,1.28.17,0v.07l.28,0,.88.15A6.8,6.8,0,0,1,61.34,67Z"/></g></g></svg>