<svg xmlns="http://www.w3.org/2000/svg" viewBox="0 0 60.85 60.85"><defs><style>.cls-1{fill:#5089c7;}.cls-2{fill:#fff;}</style></defs><g id="Layer_2" data-name="Layer 2"><g id="Capa_1" data-name="Capa 1"><circle class="cls-1" cx="30.42" cy="30.42" r="30.42" transform="translate(-10.13 44.79) rotate(-64.5)"/><circle class="cls-2" cx="30.42" cy="30.42" r="26.21" transform="translate(-10.13 44.79) rotate(-64.5)"/><path class="cls-1" d="M30.53,23.35a2.41,2.41,0,0,1-2.64-2.65c0-1.66.71-2.64,2.44-2.64a2.6,2.6,0,0,1,2.84,2.64A2.37,2.37,0,0,1,30.53,23.35Zm-2.09,3.13c-.39,4.61-.46,9.6-.39,14.5a.9.9,0,0,0,.75.88c.88.07,1.57.2,2.45.2A6.52,6.52,0,0,0,32.36,42c.42-.06.65-.75.65-1.17-.23-6.31.2-9.28,0-14,0-.4-.23-1.08-.65-1.15a15.27,15.27,0,0,0-1.73-.13c-.43,0-.85,0-1.44.07C28.73,25.6,28.47,26.06,28.44,26.48Z"/></g></g></svg>