<svg xmlns="http://www.w3.org/2000/svg" viewBox="0 0 60.85 60.85"><defs><style>.cls-1{fill:#5089c7;}.cls-2{fill:#fff;}.cls-3{fill:none;stroke:#5089c7;stroke-linecap:round;stroke-linejoin:round;stroke-width:2.5px;}</style></defs><g id="Layer_2" data-name="Layer 2"><g id="Capa_1" data-name="Capa 1"><circle class="cls-1" cx="30.42" cy="30.42" r="30.42" transform="translate(-10.13 44.79) rotate(-64.5)"/><circle class="cls-2" cx="30.42" cy="30.42" r="26.21" transform="translate(-10.13 44.79) rotate(-64.5)"/><path class="cls-3" d="M33.51,24.37V16.29H27.18v8.08a13,13,0,0,1-3.64,9l-2.86,3-.07.08a5.31,5.31,0,0,0,3.87,9H36.21a5.31,5.31,0,0,0,3.87-9L40,36.36l-2.86-3A13,13,0,0,1,33.51,24.37Z"/><rect class="cls-3" x="25.82" y="13.4" width="0.99" height="2.89"/><rect class="cls-3" x="25.82" y="12.41" width="8.95" height="3.88"/><path class="cls-3" d="M23.54,33.4l-2.86,3-.07.08a5.31,5.31,0,0,0,3.87,9H36.21a5.31,5.31,0,0,0,3.87-9L40,36.36l-2.86-3A13.07,13.07,0,0,1,34,27.87H26.7A13.07,13.07,0,0,1,23.54,33.4Z"/></g></g></svg>