<svg xmlns="http://www.w3.org/2000/svg" viewBox="0 0 131.09 100.33"><defs><style>.cls-1{fill:#b3bae0;}.cls-1,.cls-2,.cls-3,.cls-4,.cls-5{fill-rule:evenodd;}.cls-2{fill:#907c9f;}.cls-3{fill:#705683;}.cls-4{fill:#453251;}.cls-5,.cls-6{fill:#2b1a38;}.cls-7{fill:aqua;}</style></defs><g id="Layer_2" data-name="Layer 2"><g id="Capa_1" data-name="Capa 1"><polygon class="cls-1" points="4.92 0 5.59 97.97 131.09 98.64 131.09 3.15 4.92 0"/><polygon class="cls-2" points="4.92 0 0 3.74 0.84 99.94 5.59 97.97 4.92 0"/><polygon class="cls-3" points="0.84 99.94 127.14 100.33 131.09 98.64 5.59 97.97 0.84 99.94"/><polygon class="cls-4" points="16.96 81.17 31.5 89.35 108.77 89.8 121.83 79.45 123.46 28.56 107.5 13.52 32.88 11.54 16.26 22.44 16.96 81.17"/><polygon class="cls-5" points="32.88 11.54 25.6 16.32 106.05 19.06 118.64 31.65 117.36 82.99 121.83 79.45 123.46 28.56 107.5 13.52 32.88 11.54"/><path class="cls-6" d="M41.35,48.59l7.78.13.27,7.08-7.79-.12Zm8.17-7.48,7.84.13.27,7.07-7.85-.12Zm.57,15.18,7.84.12.27,7.07-7.85-.11ZM57.74,33.7l7.82.14.27,7.06L58,40.77ZM58.89,64l7.82.11.27,7L59.15,71Zm7-37.78,7.74.14.27,7-7.74-.13ZM67.66,71.7l7.75.1.26,7.06-7.74-.09Zm6.76-45.3,7.73.14.27,7.05-7.73-.13Zm1.72,45.41,7.73.1L84.14,79l-7.73-.1Z"/><path class="cls-7" d="M39,46.25l7.78.12.27,7.08-7.78-.12Zm8.17-7.49,7.84.13L55.28,46l-7.85-.12Zm.57,15.18,7.84.12.27,7.07L48,61Zm7.65-22.59,7.83.14.26,7.06-7.82-.13Zm1.15,30.33,7.82.11.27,7-7.83-.11ZM63.59,23.9l7.74.14.27,7.06L63.86,31Zm1.73,45.45,7.74.1.26,7.06-7.74-.09Zm6.75-45.3,7.73.15.27,7-7.73-.13ZM73.8,69.46l7.72.11.27,7.05-7.73-.1Z"/></g></g></svg>