<svg xmlns="http://www.w3.org/2000/svg" viewBox="0 0 423.58 134.22"><defs><style>.cls-1{fill:#81b92c;}.cls-2{fill:#fff;}.cls-3{fill:#6b9325;}.cls-4{fill:#5089c7;}.cls-5{fill:#793087;}.cls-6{fill:#f5e51c;}</style></defs><g id="Layer_2" data-name="Layer 2"><g id="Capa_1" data-name="Capa 1"><path class="cls-1" d="M419.61,60.17h0c-.31-.33-.63-.65-.95-.95a8.91,8.91,0,0,0,1.21-1.64l1.42-2.43a9.1,9.1,0,0,0-2.42-11.88,24.37,24.37,0,0,0-7.78-3.74,31.1,31.1,0,0,0-8.53-1.24h-.18c-5.85,0-10.7,1.46-14.41,4.35-.27.2-.53.42-.78.64a23.72,23.72,0,0,0-2.76-1.85h0a26,26,0,0,0-16.34-3l0-4.34A9.13,9.13,0,0,0,359,24.89H356A9.11,9.11,0,0,0,346.84,34l0,7.44a22.7,22.7,0,0,0-12.63-3.45,29.62,29.62,0,0,0-10.06,1.66,25.94,25.94,0,0,0-8.8,5.09,9.11,9.11,0,0,0-1.46,12l1.51,2.2a16.84,16.84,0,0,0-3.8,8.22l-7.68,0L304,36.29a9.06,9.06,0,0,0-2.63-6.45A9.18,9.18,0,0,0,295,27.13h-3.15a9.14,9.14,0,0,0-2.63.39,9.06,9.06,0,0,0-6.7-3l-7.62,0a9.13,9.13,0,0,0-9.16,9.07v3.24c-.46,0-.91,0-1.37,0a25.94,25.94,0,0,0-12.87,3.14c-.28.15-.55.32-.83.49-.19-.23-.39-.46-.6-.67a9.09,9.09,0,0,0-6.43-2.7L236,37a9.14,9.14,0,0,0-8.29,5.22,9.09,9.09,0,0,0-8.23-5.3l-7.62,0a9.12,9.12,0,0,0-6.46,2.64,9.94,9.94,0,0,0-.68.76c-.32-.2-.65-.4-1-.59h0A29,29,0,0,0,178,39.13l0-6a9.11,9.11,0,0,0-9.07-9.16l-7.62,0h0a9.09,9.09,0,0,0-6.41,2.63,8.81,8.81,0,0,0-1.37,1.75,33.62,33.62,0,0,0-12.91-2.54,32.9,32.9,0,0,0-16,3.87A31,31,0,0,0,118.38,34,20.83,20.83,0,0,0,119,29,20.76,20.76,0,0,0,98.34,8.15h0a17.8,17.8,0,0,0-1.93.08A49.37,49.37,0,0,0,69.2,0h-.26A49.47,49.47,0,0,0,36.7,11.81c-.93-.08-1.85-.13-2.76-.13h-.17a33.77,33.77,0,0,0-5.62,67.07A50.12,50.12,0,0,0,68.7,99.89a49.25,49.25,0,0,0,7.86-.58,25.69,25.69,0,0,0,12.49,3.32h.13A25.47,25.47,0,0,0,103.91,98a26.17,26.17,0,0,0,11.77-21,30.19,30.19,0,0,0,8.51,6.9,33.16,33.16,0,0,0,16,4h.18a33.68,33.68,0,0,0,13-2.47c.46-.2.92-.4,1.36-.61a9.13,9.13,0,0,0,6.3,2.57l7.62,0h0A9.09,9.09,0,0,0,175.78,84l1.2.7a27.56,27.56,0,0,0,13.2,3.28h.17a27.69,27.69,0,0,0,13.13-3.16,25.44,25.44,0,0,0,5-3.5c.18.19.35.38.54.56,4.22,4.13,9.8,6.24,16.58,6.27h.11a24.27,24.27,0,0,0,7-1,9.18,9.18,0,0,0,3.33.65l7.26,0h0a9.1,9.1,0,0,0,6.41-2.64,6.87,6.87,0,0,0,.58-.63l.85.52a26.15,26.15,0,0,0,12.84,3.27h.13a25.36,25.36,0,0,0,7.3-1,9.14,9.14,0,0,0,3.36.66l7.31,0h0a9.09,9.09,0,0,0,4.65-1.29A9.19,9.19,0,0,0,291.55,88l27.68.14h0a9.07,9.07,0,0,0,4.23-1,25.22,25.22,0,0,0,8.28,1.35h.16a25.29,25.29,0,0,0,7.46-1.06,8.83,8.83,0,0,0,3.84.87l2.93,0h0A9.07,9.07,0,0,0,350.93,87a9.1,9.1,0,0,0,4.75,1.38h3a9.14,9.14,0,0,0,4.53-1.2,24.5,24.5,0,0,0,8.47,1.51h.14a24.87,24.87,0,0,0,12.47-3.23c.55-.31,1.07-.64,1.59-1a27.13,27.13,0,0,0,5.78,2.7,32.34,32.34,0,0,0,10.19,1.67H402c5.83,0,10.69-1.36,14.43-4a16.56,16.56,0,0,0,7.14-13.69A15.54,15.54,0,0,0,419.61,60.17Z"/><path class="cls-2" d="M133,43.48a15.91,15.91,0,0,1,7.87-1.88,15,15,0,0,1,11.38,5l5.14-4.79a19.66,19.66,0,0,0-7.29-5.34,24.43,24.43,0,0,0-9.56-1.87,24,24,0,0,0-11.68,2.77,21.09,21.09,0,0,0-8.24,7.79,21.57,21.57,0,0,0-3,11.27,21.78,21.78,0,0,0,2.9,11.29,20.93,20.93,0,0,0,8.13,7.87,24.11,24.11,0,0,0,11.66,2.9,24.59,24.59,0,0,0,9.61-1.79,19.35,19.35,0,0,0,7.37-5.26l-5.09-4.9a14.9,14.9,0,0,1-11.43,5,16.06,16.06,0,0,1-7.85-2,13.84,13.84,0,0,1-5.4-5.36,16.34,16.34,0,0,1,.08-15.48A13.85,13.85,0,0,1,133,43.48"/><rect class="cls-2" x="142.34" y="51.62" width="45.23" height="7.62" transform="matrix(0, -1, 1, 0, 108.72, 220.12)"/><path class="cls-2" d="M199.34,47.44a19.74,19.74,0,0,0-17.86-.09,15.57,15.57,0,0,0-6.21,5.88A16.51,16.51,0,0,0,173,61.81a16.75,16.75,0,0,0,2.18,8.64,15.46,15.46,0,0,0,6.16,6,19.74,19.74,0,0,0,17.86.09,15.6,15.6,0,0,0,6.22-5.91,17.81,17.81,0,0,0,.08-17.22,15.52,15.52,0,0,0-6.16-5.94m-2.12,21.87a9.33,9.33,0,0,1-7,2.77,9.21,9.21,0,0,1-6.91-2.84,10.18,10.18,0,0,1-2.67-7.39,10.12,10.12,0,0,1,2.75-7.36,10,10,0,0,1,13.86.07A10,10,0,0,1,200,62a10.06,10.06,0,0,1-2.78,7.36"/><path class="cls-2" d="M235.84,62.31c0,3.17-.83,5.6-2.44,7.27a8.56,8.56,0,0,1-6.51,2.5,7.24,7.24,0,0,1-5.62-2.19q-2-2.17-2-6.57l.08-17.55-7.62,0-.09,18.59q0,7.14,3.7,10.78t10.25,3.68a14.75,14.75,0,0,0,5.92-1.16,12.11,12.11,0,0,0,4.59-3.36l0,4.15,7.25,0,.16-32.55-7.61,0Z"/><path class="cls-2" d="M274.73,50.07a12,12,0,0,0-4.55-3.32,15.71,15.71,0,0,0-5.91-1.12,17.07,17.07,0,0,0-8.45,2,14.9,14.9,0,0,0-5.91,5.82,17.42,17.42,0,0,0-2.18,8.71,17.51,17.51,0,0,0,2.09,8.75,14.94,14.94,0,0,0,5.85,5.92A17.23,17.23,0,0,0,264.1,79a15.69,15.69,0,0,0,6.14-1.13,11.78,11.78,0,0,0,4.68-3.45l0,4.21,7.31,0,.23-45.23-7.62,0Zm-1.24,17.61A9.1,9.1,0,0,1,270,71.23a10.42,10.42,0,0,1-9.88,0,9,9,0,0,1-3.46-3.58,11.88,11.88,0,0,1,.06-10.73,9,9,0,0,1,3.49-3.55,9.86,9.86,0,0,1,4.94-1.22,9.7,9.7,0,0,1,4.93,1.27A9,9,0,0,1,273.54,57a11.93,11.93,0,0,1-.05,10.73"/><polygon class="cls-2" points="294.92 36.03 291.81 36.01 291.6 78.68 319.27 78.82 319.29 76.02 294.72 75.89 294.92 36.03"/><path class="cls-2" d="M334.12,46.83a20.63,20.63,0,0,0-7,1.16,16.81,16.81,0,0,0-5.75,3.29l1.51,2.2a15.23,15.23,0,0,1,4.93-2.9,17,17,0,0,1,6.07-1.07c3.08,0,5.43.8,7,2.35s2.39,3.82,2.38,6.78V61.2l-10.92-.05c-4.14,0-7.16.78-9.06,2.42A8.16,8.16,0,0,0,320.41,70a8.07,8.07,0,0,0,3,6.6q3.06,2.5,8.37,2.54a14.84,14.84,0,0,0,7-1.52,10.6,10.6,0,0,0,4.48-4.34l0,5.67,2.92,0,.1-20.18q0-5.85-3.12-8.89t-9.07-3.06m9.09,22.72a11.08,11.08,0,0,1-4.2,5.29,12,12,0,0,1-6.74,1.79,10.39,10.39,0,0,1-6.52-1.83,5.88,5.88,0,0,1-2.29-4.92,5.71,5.71,0,0,1,2.13-4.68c1.41-1.13,3.67-1.69,6.8-1.67l10.85,0Z"/><path class="cls-2" d="M379.89,49.1a16,16,0,0,0-8-2.08A15,15,0,0,0,364.22,49a13.74,13.74,0,0,0-5.33,5.49L359,33.79l-3.05,0L355.72,79l2.93,0,0-7.5a13.84,13.84,0,0,0,5.3,5.73,14.92,14.92,0,0,0,7.7,2.08,15.89,15.89,0,0,0,8.06-2,14.86,14.86,0,0,0,5.67-5.7,18.17,18.17,0,0,0,.08-16.73,14.66,14.66,0,0,0-5.61-5.76m2.85,21.08a12.28,12.28,0,0,1-4.62,4.73,12.86,12.86,0,0,1-6.6,1.67A12.61,12.61,0,0,1,365,74.84a12.22,12.22,0,0,1-4.55-4.77,15.26,15.26,0,0,1,.07-13.9,12.17,12.17,0,0,1,4.6-4.73,12.64,12.64,0,0,1,6.56-1.68,12.84,12.84,0,0,1,6.57,1.74,12.18,12.18,0,0,1,4.58,4.78,15.26,15.26,0,0,1-.07,13.9"/><path class="cls-2" d="M412.9,66.12a9.18,9.18,0,0,0-3.85-2.49,46,46,0,0,0-6-1.46q-3.35-.69-5.21-1.27a8.18,8.18,0,0,1-3.13-1.79,4.28,4.28,0,0,1-1.26-3.32,5.12,5.12,0,0,1,2.28-4.32c1.51-1.09,3.74-1.63,6.71-1.62a18.45,18.45,0,0,1,5.12.76A14.79,14.79,0,0,1,412,52.77l1.41-2.43a15.25,15.25,0,0,0-4.86-2.28,21.86,21.86,0,0,0-6-.89q-5.79,0-8.94,2.43a7.64,7.64,0,0,0-3.17,6.23A6.87,6.87,0,0,0,392,60.71a9.44,9.44,0,0,0,4,2.58,41.56,41.56,0,0,0,6.09,1.5q3.22.63,5.06,1.18a7.77,7.77,0,0,1,3.06,1.72,4.12,4.12,0,0,1,1.24,3.18,5.06,5.06,0,0,1-2.31,4.38c-1.53,1-3.9,1.56-7.11,1.55a18.94,18.94,0,0,1-6.42-1.13,16.24,16.24,0,0,1-5-2.77l-1.41,2.43a14.89,14.89,0,0,0,5.41,3,23,23,0,0,0,7.31,1.2q6,0,9.27-2.33a7.46,7.46,0,0,0,3.33-6.33,6.58,6.58,0,0,0-1.57-4.7"/><path class="cls-3" d="M197.22,92.37a20.93,20.93,0,1,1-20.92,20.92,20.92,20.92,0,0,1,20.92-20.92"/><path class="cls-4" d="M243.08,92.37a20.93,20.93,0,1,1-20.92,20.92,20.92,20.92,0,0,1,20.92-20.92"/><path class="cls-5" d="M288.94,92.37A20.93,20.93,0,1,1,268,113.29a20.92,20.92,0,0,1,20.92-20.92"/><path class="cls-6" d="M334.8,92.37a20.93,20.93,0,1,1-20.92,20.92A20.92,20.92,0,0,1,334.8,92.37"/><path class="cls-2" d="M203.41,118.34a5.13,5.13,0,0,1-1.95,4.3,8.66,8.66,0,0,1-5.44,1.55,12.75,12.75,0,0,1-5.68-1.09v-3.16a13.15,13.15,0,0,0,3,1,14.37,14.37,0,0,0,2.93.4,4.56,4.56,0,0,0,2.92-.75,2.46,2.46,0,0,0,.92-2,2.56,2.56,0,0,0-.86-1.95,14.36,14.36,0,0,0-3.56-1.9,9,9,0,0,1-3.95-2.58,5.53,5.53,0,0,1-1.15-3.49,4.85,4.85,0,0,1,1.84-4,7.55,7.55,0,0,1,4.87-1.5,14.28,14.28,0,0,1,5.84,1.27L202,107.22a13.16,13.16,0,0,0-4.88-1.15,3.8,3.8,0,0,0-2.46.69,2.27,2.27,0,0,0-.86,1.89,2.72,2.72,0,0,0,.34,1.38,3.42,3.42,0,0,0,1.09,1.09,15.65,15.65,0,0,0,2.75,1.31,15.82,15.82,0,0,1,3.33,1.78,5.29,5.29,0,0,1,1.55,1.84,4,4,0,0,1,.51,2.29"/><polygon class="cls-2" points="244.57 124.47 241.25 124.47 241.25 106.87 235.23 106.87 235.23 104.01 250.59 104.01 250.59 106.87 244.57 106.87 244.57 124.47"/><polygon class="cls-2" points="294.96 124.47 283.38 124.47 283.38 104.01 294.96 104.01 294.96 106.82 286.7 106.82 286.7 112.38 294.44 112.38 294.44 115.19 286.7 115.19 286.7 121.61 294.96 121.61 294.96 124.47"/><path class="cls-2" d="M332.33,124.47l-6-17.08h-.11c.17,2.52.23,4.93.23,7.16v10h-3V104.06h4.7l5.67,16.28h.06l5.85-16.28h4.75v20.47h-3.21V114.38c0-1,0-2.35.06-3.95s.12-2.64.12-3h-.12l-6.13,17.08h-2.93Z"/><path class="cls-2" d="M98.3,17a11.51,11.51,0,0,0-4,.7A40.78,40.78,0,0,0,39.65,21.3a24.65,24.65,0,1,0-6.21,48.58A40.85,40.85,0,0,0,78.55,89.42a16.45,16.45,0,0,0,20.22.78,17,17,0,0,0,6.28-21.44,40.83,40.83,0,0,0,2.33-32.87A11.63,11.63,0,0,0,98.3,17m1.36,20a57.83,57.83,0,0,1-1.5,29.67,12.32,12.32,0,1,1-19.78,3.87C63.29,59.87,54.12,57,49.61,56.29a18.54,18.54,0,0,1-14.76,7.24A18.83,18.83,0,1,1,53.59,44.79c0,.34,0,.66-.05,1A75.75,75.75,0,0,1,80.91,66.85a12.17,12.17,0,0,1,8.76-3.65h.17c1.5-1.88,5.48-8.45,6.82-26.36A8.21,8.21,0,0,1,90.74,31c-1.29,0-4,.34-8.67,2.57a4.43,4.43,0,0,1,.41,1.85A4.34,4.34,0,1,1,78.16,31a4.29,4.29,0,0,1,2.75,1,25.8,25.8,0,0,1,9.71-4.93,8.2,8.2,0,1,1,9,9.91"/></g></g></svg>