<svg xmlns="http://www.w3.org/2000/svg" viewBox="0 0 426.1 223.24"><defs><style>.cls-1{fill:#eaeff4;}.cls-2{fill:none;stroke:#eaeff4;stroke-linecap:round;stroke-linejoin:round;stroke-width:30.53px;}.cls-3{fill:#f5e51c;}</style></defs><g id="Layer_2" data-name="Layer 2"><g id="Capa_1" data-name="Capa 1"><circle class="cls-1" cx="125.08" cy="65.81" r="65.81"/><path class="cls-2" d="M39.48,89.65H386.62a24.21,24.21,0,0,1,24.21,24.21v55.37a24.21,24.21,0,0,1-24.21,24.22h-4.94l5.83,11.35a2.17,2.17,0,0,1-3,2.86l-23.93-14.21H39.48a24.21,24.21,0,0,1-24.21-24.22V113.86A24.21,24.21,0,0,1,39.48,89.65Z"/><path class="cls-3" d="M36.1,91.15H386.62a24.21,24.21,0,0,1,24.21,24.21v55.37A24.21,24.21,0,0,1,386.62,195h-4.94l5.83,11.35a2.17,2.17,0,0,1-3,2.86L360.54,195H36.1a24.21,24.21,0,0,1-24.21-24.22V115.36A24.21,24.21,0,0,1,36.1,91.15Z"/></g></g></svg>