<svg xmlns="http://www.w3.org/2000/svg" viewBox="0 0 444.14 241.62"><defs><style>.cls-1{fill:#eaeff4;}.cls-2{fill:none;stroke:#eaeff4;stroke-linecap:round;stroke-linejoin:round;stroke-width:30.53px;}.cls-3{fill:#f5e51c;}</style></defs><g id="Layer_2" data-name="Layer 2"><g id="Capa_1" data-name="Capa 1"><circle class="cls-1" cx="337.15" cy="65.81" r="65.81"/><path class="cls-2" d="M404.66,108H39.48a24.21,24.21,0,0,0-24.21,24.22v55.37a24.21,24.21,0,0,0,24.21,24.21h4.94l-5.83,11.35a2.17,2.17,0,0,0,3,2.87l23.92-14.22H404.66a24.21,24.21,0,0,0,24.22-24.21V132.24A24.22,24.22,0,0,0,404.66,108Z"/><path class="cls-3" d="M408,109.52H39.48a24.21,24.21,0,0,0-24.21,24.22v55.37a24.21,24.21,0,0,0,24.21,24.21h4.94l-5.83,11.35a2.17,2.17,0,0,0,3,2.87l23.92-14.22H408a24.21,24.21,0,0,0,24.21-24.21V133.74A24.21,24.21,0,0,0,408,109.52Z"/></g></g></svg>