<svg xmlns="http://www.w3.org/2000/svg" viewBox="0 0 131.09 100.33"><defs><style>.cls-1{fill:#b3bae0;}.cls-1,.cls-2,.cls-3,.cls-4,.cls-5{fill-rule:evenodd;}.cls-2{fill:#907c9f;}.cls-3{fill:#705683;}.cls-4{fill:#453251;}.cls-5,.cls-6{fill:#2b1a38;}.cls-7{fill:aqua;}</style></defs><g id="Layer_2" data-name="Layer 2"><g id="Capa_1" data-name="Capa 1"><polygon class="cls-1" points="4.92 0 5.59 97.97 131.09 98.64 131.09 3.15 4.92 0"/><polygon class="cls-2" points="4.92 0 0 3.74 0.84 99.94 5.59 97.97 4.92 0"/><polygon class="cls-3" points="0.84 99.94 127.14 100.33 131.09 98.64 5.59 97.97 0.84 99.94"/><polygon class="cls-4" points="16.96 81.17 31.5 89.35 108.77 89.8 121.83 79.45 123.46 28.56 107.5 13.52 32.88 11.54 16.26 22.44 16.96 81.17"/><polygon class="cls-5" points="32.88 11.54 25.6 16.32 106.05 19.06 118.64 31.65 117.36 82.99 121.83 79.45 123.46 28.56 107.5 13.52 32.88 11.54"/><path class="cls-6" d="M58.65,29.73l.29,6.5-6.57-.11-.29-6.51Zm1.84,41.85.28,6.5L54.2,78l-.28-6.51Zm5.35-41.72.29,6.5-6.62-.12-.29-6.5Zm1.84,41.81.28,6.5-6.62-.08-.29-6.51ZM73.32,37l.28,6.49L67,43.36l-.29-6.49Zm1.22,27.85.28,6.44-6.6-.09-.28-6.44ZM80.78,44l.28,6.48-6.59-.1-.29-6.49ZM81.39,58l.28,6.49-6.59-.1-.28-6.49Zm6.79-6.82.28,6.48-6.52-.1L81.65,51Z"/><path class="cls-7" d="M60,27.13l.29,6.5-6.57-.11L53.38,27ZM61.79,69l.28,6.5L55.5,75.4l-.28-6.51Zm5.35-41.72.29,6.5-6.62-.12-.29-6.5ZM69,69.07l.28,6.5-6.62-.08L62.35,69Zm5.64-34.69.28,6.49-6.6-.11L68,34.27Zm1.22,27.85.28,6.44-6.6-.09-.28-6.44Zm6.24-20.79.28,6.48-6.59-.1-.29-6.49Zm.61,13.91L83,61.84l-6.59-.1-.28-6.49Zm6.79-6.82L89.76,55l-6.52-.1L83,48.43Z"/></g></g></svg>