<svg xmlns="http://www.w3.org/2000/svg" viewBox="0 0 60.85 60.85"><defs><style>.cls-1{fill:#5089c7;}.cls-2{fill:#fff;}</style></defs><g id="Layer_2" data-name="Layer 2"><g id="Capa_1" data-name="Capa 1"><circle class="cls-1" cx="30.42" cy="30.42" r="30.42" transform="translate(-10.13 44.79) rotate(-64.5)"/><circle class="cls-2" cx="30.42" cy="30.42" r="26.21" transform="translate(-10.13 44.79) rotate(-64.5)"/><rect class="cls-1" x="40.76" y="16.27" width="3.45" height="28.71" rx="1.73"/><rect class="cls-1" x="46.49" y="13.56" width="3.45" height="33.39" rx="1.73"/><rect class="cls-1" x="34.72" y="20.62" width="3.45" height="19.66" rx="1.73"/><path class="cls-1" d="M29.5,14.78,22.12,23a1.2,1.2,0,0,1-.9.4h-9.1a1.22,1.22,0,0,0-1.22,1.22V36.84a1.22,1.22,0,0,0,1.22,1.21H22.8a1.23,1.23,0,0,1,1,.48L29.44,46a1.21,1.21,0,0,0,2.18-.74V15.59A1.22,1.22,0,0,0,29.5,14.78Z"/></g></g></svg>